<svg width="100%" height="100%" viewBox="0 0 285 228" fill="none" xmlns="http://www.w3.org/2000/svg">
<g clip-path="url(#clip0_57811_5732)">
<path d="M190.428 49.9413C190.386 49.9485 190.324 49.9591 190.248 49.9717C188.765 50.2181 179.798 51.6069 170.758 48.15C166.928 46.6855 168.235 46.3206 159.706 41.2292C149.706 35.2601 147.14 35.3018 146.395 32.5185C144.908 26.9608 152.848 18.2239 158.103 18.7991C159.487 18.9506 160.968 19.7786 163.273 19.2171C163.779 19.0938 165.996 18.5538 167.076 16.712C168.04 15.069 167.224 13.8838 167.612 12.5363C168.629 8.99924 177.112 7.23408 184.548 8.48126C188.826 9.1986 192.152 11.157 198.632 15.0444C209.909 21.8107 215.547 25.1938 216.814 30.3771C218.016 35.2899 215.133 37.4068 217.229 42.6659C219.182 47.5627 222.282 47.2356 223.349 51.1969C225.067 57.5714 218.694 64.5675 216.039 67.4818C213.128 70.6771 210.344 72.4307 206.649 74.7588C202.01 77.681 199.691 79.1421 196.903 78.9934C191.847 78.7239 176.825 79.6413 176.629 75.4417C176.555 73.8678 158.336 75.1565 167.307 58.2118C168.407 56.1334 189.964 58.3534 190.249 57.1595" fill="#2F2E41"/>
<path d="M199.153 60.7844L214.648 83.9865L170.169 93.0162L173.002 63.968L199.153 60.7844Z" fill="#FFB6B6"/>
<path opacity="0.1" d="M199.153 60.7844L214.648 83.9865L170.169 93.0162L173.002 63.968L199.153 60.7844Z" fill="black"/>
<path d="M166.837 77.9668L214.811 75.9602L236.132 87.6653L235.133 162.912L257.454 205.385L144.849 183.981L153.511 151.876L149.513 84.321L166.837 77.9668Z" fill="currentColor"/>
<path d="M1.29198 224.147C-0.23961 221.724 -0.420487 218.729 0.80823 216.138L19.0672 177.626C20.4299 174.752 23.3594 172.895 26.5303 172.895H257.155C260.238 172.895 263.042 174.597 264.474 177.337L284.045 214.788C285.398 217.376 285.309 220.417 283.807 222.921C282.305 225.426 279.67 226.928 276.758 226.939L8.30381 228H8.2702C5.42433 228 2.81736 226.562 1.29198 224.147Z" fill="white"/>
<path d="M1.29198 224.147C-0.23961 221.724 -0.420487 218.729 0.80823 216.138L19.0672 177.626C20.4299 174.752 23.3594 172.895 26.5303 172.895H257.155C260.238 172.895 263.042 174.597 264.474 177.337L284.045 214.788C285.398 217.376 285.309 220.417 283.807 222.921C282.305 225.426 279.67 226.928 276.758 226.939L8.30381 228H8.2702C5.42433 228 2.81736 226.562 1.29198 224.147ZM26.5303 173.765C23.6922 173.765 21.0702 175.428 19.8505 178L1.59161 216.512C0.491804 218.832 0.653619 221.512 2.02453 223.681C3.38992 225.842 5.72297 227.129 8.27034 227.129H8.30042L276.755 226.068C279.361 226.058 281.72 224.714 283.064 222.472C284.408 220.231 284.488 217.509 283.277 215.192L263.706 177.742C262.424 175.289 259.914 173.765 257.155 173.765H26.5303Z" fill="#3F3D56"/>
<path d="M235.683 213.277L140.511 206.709C139.106 206.612 137.985 205.661 137.656 204.286C137.327 202.912 137.894 201.553 139.102 200.826L160.147 188.15C160.682 187.828 161.295 187.672 161.916 187.702L244.24 191.458C245.328 191.507 246.3 192.104 246.84 193.054C247.38 194.004 247.397 195.148 246.886 196.113L238.69 211.601C238.14 212.641 237.061 213.285 235.9 213.285C235.828 213.285 235.756 213.282 235.683 213.277Z" fill="#79747E"/>
<path d="M139.686 202.877L234.467 209.398L241.963 193.178L160.692 189.979L139.686 202.877Z" fill="white"/>
<path d="M186.326 68.6001C202.056 68.6001 214.808 55.7994 214.808 40.0089C214.808 24.2185 202.056 11.4178 186.326 11.4178C170.596 11.4178 157.845 24.2185 157.845 40.0089C157.845 55.7994 170.596 68.6001 186.326 68.6001Z" fill="#FFB6B6"/>
<path d="M195.5 41.8591C195.459 41.8663 195.396 41.8769 195.32 41.8895C193.837 42.1359 184.871 43.5247 175.831 40.0678C172.001 38.6033 173.307 38.2383 164.778 33.147C154.778 27.1779 152.212 27.2196 151.467 24.4363C149.98 18.8786 157.92 10.1417 163.175 10.7169C164.559 10.8684 166.041 11.6964 168.345 11.1349C168.852 11.0116 171.068 10.4716 172.149 8.62979C173.113 6.98677 172.296 5.80156 172.684 4.45405C173.702 0.917027 182.184 -0.848135 189.621 0.399048C193.898 1.11638 197.225 3.07475 203.704 6.96222C214.981 13.7284 220.62 17.1116 221.887 22.2949C223.088 27.2077 220.205 29.3246 222.302 34.5837C224.254 39.4805 227.355 39.1534 228.422 43.1147C230.139 49.4892 223.766 56.4853 221.111 59.3996C218.201 62.5949 215.417 64.3485 211.721 66.6766C207.083 69.5988 204.764 71.0598 201.975 70.9112C196.92 70.6417 191.891 66.0426 191.695 61.8429C191.622 60.269 192.276 59.797 193.895 54.3863C194.569 52.1321 195.037 50.2712 195.321 49.0772" fill="#2F2E41"/>
<path d="M215.022 195.044C216.854 195.116 218.249 196.764 218.35 198.55C218.454 200.403 217.171 202.11 215.629 202.993C213.822 204.027 211.567 204.192 209.533 204.015C207.703 203.854 205.712 203.283 204.535 201.766C203.544 200.49 203.179 198.562 204.022 197.113C204.858 195.677 206.634 195.28 208.12 195.857C209.693 196.467 210.682 197.903 210.692 199.6C210.703 201.481 209.621 203.218 208.102 204.259C206.465 205.38 204.403 205.741 202.454 205.736C200.329 205.732 198.214 205.284 196.26 204.453C194.429 203.674 192.6 202.552 191.291 201.026C190.064 199.596 189.329 197.611 190.01 195.756C190.569 194.234 191.981 193.302 193.597 193.43C195.078 193.548 196.575 194.411 197.232 195.783C197.973 197.332 197.64 199.191 196.697 200.576C195.607 202.175 193.886 203.073 191.974 203.203C189.939 203.341 187.924 202.615 186.251 201.493C184.701 200.454 183.339 199.124 181.675 198.26C180.874 197.844 180.002 197.58 179.096 197.581C177.941 197.582 176.831 197.963 175.709 198.184C174.757 198.371 173.776 198.48 172.837 198.175C172.034 197.913 171.282 197.435 170.775 196.748C170.297 196.099 170.128 195.285 170.4 194.514C170.612 193.909 171.578 194.169 171.363 194.781C170.867 196.191 172.569 197.227 173.76 197.356C174.663 197.454 175.596 197.192 176.467 196.987C177.376 196.774 178.305 196.556 179.244 196.579C182.572 196.661 184.772 199.517 187.455 201.066C190.276 202.695 194.407 202.809 196.135 199.572C196.762 198.396 196.892 196.833 196.03 195.735C195.312 194.82 194.036 194.273 192.88 194.45C191.428 194.673 190.705 196.061 190.758 197.441C190.822 199.13 191.995 200.502 193.246 201.514C196.03 203.766 199.722 204.913 203.283 204.711C204.953 204.617 206.729 204.18 208.027 203.064C209.148 202.099 209.914 200.53 209.644 199.027C209.411 197.726 208.324 196.74 207.011 196.609C205.668 196.475 204.618 197.432 204.558 198.779C204.491 200.294 205.388 201.558 206.687 202.248C208.159 203.03 209.942 203.127 211.573 203.041C213.305 202.951 215.11 202.493 216.321 201.169C217.355 200.04 217.747 198.365 216.794 197.058C216.374 196.482 215.742 196.075 215.022 196.047C214.381 196.021 214.377 195.018 215.022 195.044Z" fill="#65558F"/>
<path d="M169.471 193.969L169.98 190.806L198.256 136.555C198.724 135.656 199.834 135.308 200.729 135.778C201.624 136.248 201.971 137.362 201.503 138.26L173.24 192.487L170.929 194.735C170.656 194.999 170.262 195.056 169.925 194.879C169.589 194.703 169.41 194.345 169.471 193.969Z" fill="#3F3D56"/>
<path d="M188.745 159.453C191.935 160.056 194.935 161.417 197.493 163.422L197.637 163.453L197.666 163.31L228.483 168.155L226.251 127.008L249.606 114.167L244.086 183.719C242.89 188.161 238.298 190.755 233.895 189.476L194.667 178.149L194.765 177.665L194.627 177.627C191.492 178.476 188.2 178.559 185.027 177.868C177.066 176.251 171.444 170.816 172.47 165.731C173.496 160.645 180.781 157.834 188.745 159.453Z" fill="#FFB6B6"/>
<path d="M209.814 95.0228L236.132 87.6653C236.132 87.6653 249.958 97.8654 251.624 108.902C251.822 110.214 252.372 171.355 251.791 172.945C247.486 184.723 223.806 165.922 223.806 165.922L209.814 95.0228Z" fill="currentColor"/>
<path d="M95.6549 204.913L92.9264 202.565C92.5202 202.216 92.0262 201.984 91.498 201.896L30.7038 191.724C29.3162 191.492 28.2912 190.486 28.0286 189.099C27.7663 187.711 28.3525 186.398 29.5589 185.671L51.2475 172.608C51.9723 172.172 52.8254 172.034 53.6506 172.221L130.733 189.703C132.231 190.043 133.231 191.258 133.281 192.8C133.33 194.341 132.409 195.619 130.935 196.054L98.7056 205.57C98.3998 205.66 98.0879 205.704 97.7787 205.704C97.0094 205.704 96.2566 205.431 95.6549 204.913Z" fill="#79747E"/>
<path d="M66.3777 129.051C69.3912 130.262 72.0718 132.181 74.1953 134.645L74.3306 134.704L74.3869 134.568L103.686 145.311L134.97 94.4634L152.265 105.223L115.992 163.613C113.962 167.739 108.957 169.391 104.884 167.281L68.582 148.544L68.7716 148.088L68.6442 148.025C65.4047 148.248 62.159 147.689 59.1787 146.395C51.68 143.261 47.2125 136.837 49.2001 132.047C51.1877 127.257 58.8768 125.915 66.3777 129.051Z" fill="#FFB6B6"/>
<path d="M168.529 103.643L154.692 82.8716C154.692 82.8716 138.227 86.1432 131.444 94.9882C130.596 96.0938 101.472 138.494 101.285 140.345C99.9715 153.297 133.444 159.366 133.444 159.366L168.529 103.643Z" fill="currentColor"/>
<path d="M94.149 205.537L24.4601 195.868C22.1278 195.545 20.2027 193.867 19.5556 191.594L3.54992 135.359C3.00757 133.453 3.41246 131.479 4.6608 129.944C5.90913 128.408 7.7535 127.614 9.72295 127.765L79.9345 133.165C82.4746 133.36 84.6069 135.156 85.2408 137.633L100.724 198.137C101.218 200.068 100.724 202.109 99.4018 203.597C98.2636 204.878 96.6496 205.594 94.9671 205.594C94.6958 205.594 94.4223 205.575 94.149 205.537Z" fill="#79747E"/>
<path d="M78.6153 90.3517C79.0226 90.8015 80.5008 90.3432 83.4407 89.4084C85.6754 88.6978 86.0196 88.4392 86.2321 88.2538C86.9794 87.602 87.1753 86.9166 87.9155 83.8888C89.2441 78.4542 89.2851 77.9145 89.9674 76.7612C90.2023 76.3641 90.7957 75.4168 90.651 75.2994C90.5023 75.1787 89.8601 76.1656 88.6732 76.5385C87.5163 76.9019 86.9956 76.3197 86.008 76.468C84.7314 76.6596 83.9723 77.877 82.7816 79.8474C81.7273 81.5923 81.5946 82.2943 80.1163 85.7613C79.6975 86.7434 79.3603 87.5036 79.1014 88.1044C76.1991 90.8237 73.3205 93.5788 70.4681 96.3579C70.5231 96.2735 70.5748 96.1939 70.6197 96.1247C71.8832 94.1773 72.0549 93.1333 72.0366 92.351C72.0069 91.0836 71.4039 90.1183 70.1991 88.2393C69.0185 86.398 67.8999 85.1831 66.5522 83.7333C64.7855 81.8329 63.9022 80.8826 63.5504 80.9452C61.0379 81.3915 60.366 98.5654 63.5272 101.637C63.0836 101.955 62.7161 102.288 62.4504 102.616C59.7442 99.6001 55.1085 96.2304 49.9732 95.8155C46.8073 95.5597 45.0599 96.557 44.5166 96.8996C42.0055 98.4829 40.5123 101.652 41.2622 102.546C41.9615 103.38 43.981 101.484 47.9391 101.589C50.701 101.662 52.8583 102.667 54.1391 103.265C56.8259 104.517 57.8085 105.749 59.7895 106.592C58.8609 107.36 58.1251 108.319 57.6631 109.213C57.5031 109.379 57.3436 109.545 57.1837 109.711C55.1398 108.555 52.8381 107.707 50.4254 107.512C47.2594 107.256 45.5121 108.253 44.9688 108.596C43.2763 109.663 42.0499 111.448 41.6573 112.774C41.4008 112.826 41.1634 112.885 40.9461 112.949C40.1788 111.208 37.8957 109.373 35.7727 108.448C32.1184 106.855 27.3715 107.277 26.8636 108.792C26.8474 108.84 26.8433 108.888 26.8362 108.935C27.2367 105.691 27.7806 102.469 28.4602 99.2706C28.4832 99.3618 28.5122 99.4542 28.5507 99.5514C29.4528 101.826 31.8904 104.009 35.2131 105.141C37.821 106.03 38.9133 105.57 39.1908 105.441C39.4558 105.318 40.6007 104.825 40.8812 103.844C41.4013 102.025 38.2165 96.6506 36.2075 98.4533C29.753 104.245 28.8673 99.5553 28.5708 98.7659C29.1196 96.2373 29.7512 93.7231 30.4596 91.2233C30.4718 91.2386 30.4824 91.2536 30.4951 91.269C31.9053 92.9858 34.6191 94.1954 37.8083 94.2488C40.3113 94.2907 41.1292 93.5874 41.3337 93.3986C41.529 93.2182 42.3834 92.472 42.3546 91.5448C42.3014 89.8259 39.2552 88.4259 36.8179 88.1832C34.5719 87.9595 32.1534 88.6498 30.9537 89.5239C31.5115 87.6519 32.1115 85.788 32.7515 83.9322C34.3907 84.6043 36.7126 84.5139 38.9935 83.4904C40.8746 82.6463 41.2403 81.8359 41.3273 81.6236C41.4103 81.4208 41.7885 80.5655 41.4453 79.8842C40.8091 78.621 38.0518 78.6424 36.15 79.3138C35.3668 79.5903 34.6224 80.0156 33.9844 80.4965C35.1186 77.4548 36.355 74.4347 37.6847 71.4369L36.3521 71.1025C34.6535 74.932 33.1725 78.8114 31.8998 82.7338C31.7415 81.5835 31.3449 80.358 30.8227 79.3623C29.2873 76.4348 26.0077 74.2385 24.8986 74.9511C24.6767 75.0936 24.5833 75.3258 24.4989 75.6021C23.819 77.8262 24.331 80.8997 26.1215 83.7236C27.5268 85.9399 28.6091 86.251 28.891 86.3214C29.1291 86.3808 30.0481 86.6355 30.8035 86.3074C30.2954 88.0549 29.8257 89.8099 29.3974 91.5727C28.882 90.2881 27.8663 88.9194 26.7921 87.9729C24.315 85.7904 20.4697 84.917 19.6879 85.9808C19.5316 86.1935 19.5271 86.4438 19.5467 86.7323C19.7043 89.0532 21.2777 91.7395 23.9559 93.7337C26.058 95.2987 27.1796 95.2006 27.4679 95.1651C27.6376 95.1442 28.1505 95.0929 28.6451 94.8685C28.186 97.0104 27.7848 99.1627 27.438 101.324C26.7443 98.9062 24.3881 95.8898 22.1644 96.8494C18.2184 98.5523 13.5799 95.9366 13.0694 97.0804C12.9366 97.378 13.0465 97.6849 13.1737 98.0179C14.196 100.698 17.0194 103.294 20.8963 104.673C23.9391 105.755 25.2264 105.232 25.5535 105.085C25.7703 104.988 26.4858 104.688 27.0188 104.131C26.6357 106.908 26.342 109.7 26.1351 112.503C25.3124 110.7 22.9951 108.8 20.8257 107.821C17.0203 106.102 12.0433 106.479 11.4905 108.058C11.38 108.374 11.4672 108.678 11.5975 109.02C12.6469 111.77 15.5448 114.435 19.5241 115.85C22.6472 116.961 23.9684 116.424 24.3043 116.274C24.5496 116.164 25.416 115.8 25.9685 115.11C25.8978 116.406 25.8431 117.705 25.8086 119.005C25.7987 119.376 25.7929 119.746 25.7858 120.117C25.741 120.189 25.7019 120.264 25.6758 120.342C25.5692 120.66 25.6417 120.965 25.7669 121.299C25.7642 121.535 25.7627 121.77 25.7611 122.005C25.0649 121.371 24.2344 120.419 23.2354 119.061C22.3341 117.837 21.4781 118.735 20.9283 119.778C20.0663 119.585 19.2441 119.705 18.5974 120.311C14.2612 124.377 9.39766 122.22 9.32886 123.433C9.30901 123.782 9.49567 124.061 9.73098 124.362C11.6243 126.79 15.3412 128.562 19.7569 128.748C23.2225 128.895 24.38 127.949 24.6699 127.695C24.7717 127.606 24.9999 127.413 25.2471 127.142C25.4456 127.301 25.6387 127.445 25.8325 127.577C25.9087 129.904 26.0451 132.229 26.2473 134.55C26.0829 134.565 25.9257 134.592 25.8086 134.604C24.1299 134.776 23.5643 132.502 21.0284 131.672C20.1863 131.396 18.5639 131.095 17.7089 131.672C17.5857 131.755 17.1656 132.067 16.5138 132.338C16.1285 132.498 15.8342 132.573 15.7171 132.605C14.6767 132.89 13.713 133.674 13.0615 134.204C11.8368 135.2 11.2245 135.698 10.9369 136.603C10.8465 136.888 10.592 137.689 10.9369 138.47C11.0999 138.838 11.4782 139.387 12.9287 139.936C13.7908 140.262 16.3052 141.214 19.3022 140.202C19.9847 139.972 19.4637 140.054 22.0906 138.736C24.1574 137.699 25.3661 137.203 25.543 136.204C25.6052 135.852 25.5425 135.424 25.8086 135.27C25.9564 135.185 26.1352 135.227 26.3137 135.291C26.4876 137.157 26.7047 139.02 26.9679 140.879H24.603C21.4628 140.879 18.6457 142.633 17.2513 145.458L8.40533 163.372C7.84688 164.503 7.55164 165.768 7.55164 167.03V213.096C7.55164 217.638 11.2326 221.333 15.7571 221.333H36.4048C40.9293 221.333 44.6102 217.638 44.6102 213.096V170.678C44.6102 169.644 44.4194 168.632 44.043 167.669L35.6124 146.106C34.5899 143.491 32.3753 141.641 29.728 141.069C30.5771 140.058 31.4275 139.049 32.2847 138.042C33.3638 138.565 34.551 138.994 35.8274 139.295C39.2041 140.092 40.5178 139.381 40.8501 139.186C41.1675 139 42.5432 138.242 42.7764 136.978C42.8013 136.843 42.811 136.706 42.8092 136.568C46.2681 139.39 48.0724 140.782 49.3906 140.318C50.524 139.919 51.171 138.612 51.5415 137.439C51.9284 137.493 52.3387 137.548 52.7761 137.607C57.5133 138.242 59.9005 138.536 60.8136 137.41C62.0774 135.851 60.8779 132.845 60.5473 132.017C59.8287 130.216 58.7232 129.121 58.0365 128.454C57.1449 127.589 54.6034 125.122 50.6022 124.793C49.7324 124.722 48.951 124.777 48.155 124.944C47.8776 124.689 47.5849 124.44 47.2626 124.203C46.6484 123.751 46.0419 123.416 45.3891 123.155C46.3905 122.054 47.3947 120.956 48.4036 119.862C48.5633 119.935 48.7149 120.006 48.8542 120.071C52.1594 121.612 52.8856 123.121 56.0641 123.915C57.5061 124.275 59.1387 124.683 59.5428 124.07C60.2608 122.98 57.2132 118.496 52.5037 115.463C52.8212 115.125 53.1396 114.789 53.4578 114.452C53.8885 114.633 54.2679 114.81 54.5912 114.961C57.8964 116.502 58.6226 118.011 61.8011 118.805C63.2431 119.165 64.8756 119.574 65.2799 118.96C65.9205 117.988 63.5632 114.312 59.7027 111.376C60.7631 111.038 62.1693 110.664 63.9901 110.712C66.7519 110.784 68.9093 111.79 70.1901 112.387C73.4952 113.928 74.2214 115.437 77.3999 116.232C78.8419 116.592 80.4745 117 80.8786 116.387C81.946 114.767 74.6963 105.639 66.0242 104.938C65.351 104.884 64.7459 104.889 64.1989 104.929C64.1233 104.803 64.0413 104.674 63.9548 104.543C66.889 104.638 72.6193 103.796 77.4967 107.233C78.9031 108.224 81.6351 110.556 86.2074 112.472C87.6688 113.084 88.4036 113.385 88.606 113.133C89.3304 112.233 83.3066 104.827 74.8316 101.178C71.4715 99.7316 69.3954 99.5947 67.9188 99.8139C68.1464 99.5534 68.3682 99.2846 68.5817 99.0146C71.8817 95.7656 75.2234 92.5506 78.595 89.3788C78.4318 89.8854 78.4373 90.1551 78.6153 90.3517ZM36.2661 130.79C32.5387 129.578 28.0253 130.229 26.8483 131.607C26.6824 130.386 26.5382 129.162 26.4194 127.937C28.1175 128.889 29.8894 129.144 33.2506 129.594C34.6822 129.786 35.8958 129.946 36.9223 130.046C37.0602 130.421 37.2072 130.759 37.3779 131.082C37.3976 131.119 37.4189 131.155 37.439 131.192L37.4093 131.226C37.0265 131.059 36.643 130.912 36.2661 130.79ZM26.3629 114.379C26.4692 114.025 26.4714 113.648 26.3903 113.259C26.5062 111.851 26.651 110.448 26.8223 109.048C26.8179 109.262 26.8856 109.477 26.9778 109.709C28.014 112.321 30.8139 114.829 34.6305 116.13C35.3425 116.373 35.9532 116.526 36.4793 116.619C36.2478 117.024 36.0705 117.418 35.953 117.783C34.6518 116.734 32.977 115.971 31.0767 116.781C30.5595 117.001 30.2526 117.807 29.986 118.77C28.2304 118.801 26.7634 119.168 26.0648 119.791C26.0685 119.531 26.0672 119.272 26.0741 119.012C26.1135 117.531 26.1862 116.055 26.2887 114.583C26.3167 114.517 26.3419 114.449 26.3629 114.379ZM26.0697 121.998C26.1454 122.153 26.2282 122.308 26.3143 122.462C26.2362 122.404 26.1563 122.342 26.0742 122.275C26.072 122.183 26.0714 122.09 26.0697 121.998ZM29.0671 140.955C28.8627 140.928 28.6564 140.908 28.4482 140.897C27.9677 138.502 27.5239 136.108 27.1525 133.711C28.1292 135.267 29.7233 136.691 31.7539 137.771C30.8528 138.83 29.9593 139.892 29.0671 140.955ZM44.7991 122.943C43.528 122.533 42.0364 122.337 39.972 122.096C39.4488 121.366 38.9096 120.829 38.511 120.442C38.295 120.232 37.9636 119.817 37.5341 119.33C38.6469 118.972 40.3076 118.333 42.6543 118.395C44.7871 118.451 46.5571 119.063 47.8435 119.614C46.8245 120.72 45.8106 121.83 44.7991 122.943ZM52.0031 115.149C50.754 114.391 49.3993 113.742 47.9733 113.287C48.1119 113.285 48.2475 113.281 48.3913 113.285C50.1597 113.332 51.6786 113.761 52.8798 114.22C52.5875 114.53 52.2948 114.839 52.0031 115.149Z" fill="#CAC4D0"/>
</g>
<defs>
<clipPath id="clip0_57811_5732">
<rect width="285" height="228" fill="white"/>
</clipPath>
</defs>
</svg>
